# xmcd
#
# Track frame offsets:
#	150
#	12997
#	25412
#	42119
#	58070
#	71063
#	82734
#	99696
#	110294
#	127450
#	139649
#	152887
#	167789
#
# Disc length: 2504 seconds
#
# Revision: 2
# Processed by: cddbd v1.5.2PL0 Copyright (c) Steve Scherf et al.
# Submitted via: EasyCDDAExtractor 6.5.0.1
#
DISCID=b109c60d
DTITLE=Lynn Anderson - The Bluegrass Sessions
DYEAR=2004
DGENRE=Bluegrass
TTITLE0=What a Man My Man Is
TTITLE1=Rocky Top
TTITLE2=How Can I Unlove You
TTITLE3=Rose Garden
TTITLE4=Paradise
TTITLE5=That's a No No
TTITLE6=Under the Boardwalk
TTITLE7=Ride Ride Ride
TTITLE8=If I Kiss You
TTITLE9=Top of the World
TTITLE10=Big Girls Don't Cry
TTITLE11=The Worst Is Yet To Come
TTITLE12=Cry
EXTD=
EXTT0=
EXTT1=
EXTT2=
EXTT3=
EXTT4=
EXTT5=
EXTT6=
EXTT7=
EXTT8=
EXTT9=
EXTT10=
EXTT11=
EXTT12=
PLAYORDER=
